ffmpeg started on 2025-06-07 at 17:41:30
Report written to "D:\Convert\FFMetrics\reports\psnr_report-6.txt"
Log level: 32
Command line:
ffmpeg -hide_banner -nostdin -i "G:\\\xc0\xed\xe8\xec\xe5\\\xce\xed\xe3\xee\xe8\xed\xe3\xe8\\!_36_\xce\xf1\xe5\xed\xfc_2024\\DreamCast\\\xdd\xe9, \xd2\xee\xec\xe1\xee!\\\xd2\xc2-2\\[DC] Tonbo 2 - 05_Telegram_HEVC.mkv" -i "G:\\\xc0\xed\xe8\xec\xe5\\\xce\xed\xe3\xee\xe8\xed\xe3\xe8\\!_36_\xce\xf1\xe5\xed\xfc_2024\\DreamCast\\\xdd\xe9, \xd2\xee\xec\xe1\xee!\\\xd2\xc2-2\\[DC] Tonbo 2 - 05_Telegram.mp4" -lavfi "[0:v]settb=AVTB,setpts=PTS-STARTPTS,format=pix_fmts=yuv420p10,fps=24000/1001,scale=1920:1080:flags=bicubic[main];[1:v]settb=AVTB,setpts=PTS-STARTPTS,format=pix_fmts=yuv420p,fps=24000/1001,scale=1920:1080:flags=bicubic[ref];[main][ref]psnr=eof_action=endall:stats_file='D\\:/Convert/FFMetrics/logs/psnr_logfile-6.txt'" -f null -
Input #0, matroska,webm, from 'G:\Аниме\Онгоинги\!_36_Осень_2024\DreamCast\Эй, Томбо!\ТВ-2\[DC] Tonbo 2 - 05_Telegram_HEVC.mkv':
  Metadata:
    COMPATIBLE_BRANDS: isomiso2avc1mp41
    MAJOR_BRAND     : isom
    MINOR_VERSION   : 512
    ENCODER         : Lavf61.7.100
  Duration: 00:24:20.82, start: -0.021000, bitrate: 1608 kb/s
  Stream #0:0: Video: hevc (Main 10), yuv420p10le(tv, bt709, progressive), 1920x1080 [SAR 1:1 DAR 16:9], 23.98 fps, 23.98 tbr, 1k tbn (default)
      Metadata:
        HANDLER_NAME    : VideoHandler
        VENDOR_ID       : [0][0][0][0]
        ENCODER         : Lavc61.19.100 libx265
        BPS             : 1412382
        DURATION        : 00:24:19.708708333
        NUMBER_OF_FRAMES: 34998
        NUMBER_OF_BYTES : 257708268
        _STATISTICS_WRITING_APP: mkvpropedit v66.0.0 ('Josie') 64-bit
        _STATISTICS_WRITING_DATE_UTC: 2025-06-06 07:29:58
        _STATISTICS_TAGS: BPS DURATION NUMBER_OF_FRAMES NUMBER_OF_BYTES
  Stream #0:1: Audio: aac (LC), 48000 Hz, stereo, fltp (default)
      Metadata:
        HANDLER_NAME    : SoundHandler
        VENDOR_ID       : [0][0][0][0]
        ENCODER         : Lavc61.19.100 aac
        BPS             : 192988
        DURATION        : 00:24:20.821000000
        NUMBER_OF_FRAMES: 68477
        NUMBER_OF_BYTES : 35240258
        _STATISTICS_WRITING_APP: mkvpropedit v66.0.0 ('Josie') 64-bit
        _STATISTICS_WRITING_DATE_UTC: 2025-06-06 07:29:58
        _STATISTICS_TAGS: BPS DURATION NUMBER_OF_FRAMES NUMBER_OF_BYTES
Input #1, mov,mp4,m4a,3gp,3g2,mj2, from 'G:\Аниме\Онгоинги\!_36_Осень_2024\DreamCast\Эй, Томбо!\ТВ-2\[DC] Tonbo 2 - 05_Telegram.mp4':
  Metadata:
    major_brand     : isom
    minor_version   : 512
    compatible_brands: isomiso2avc1mp41
    encoder         : Lavf61.1.100
  Duration: 00:24:20.77, start: 0.000000, bitrate: 3809 kb/s
  Stream #1:0[0x1](und): Video: h264 (High) (avc1 / 0x31637661), yuv420p(tv, bt709, progressive), 1920x1080 [SAR 1:1 DAR 16:9], 3664 kb/s, 23.98 fps, 23.98 tbr, 24k tbn (default)
      Metadata:
        handler_name    : VideoHandler
        vendor_id       : [0][0][0][0]
        encoder         : Lavc61.3.100 h264_qsv
  Stream #1:1[0x2](und): Audio: aac (HE-AACv2) (mp4a / 0x6134706D), 48000 Hz, stereo, fltp, 144 kb/s (default)
      Metadata:
        handler_name    : SoundHandler
        vendor_id       : [0][0][0][0]
Stream mapping:
  Stream #0:0 (hevc) -> settb:default
  Stream #1:0 (h264) -> settb:default
  psnr:default -> Stream #0:0 (wrapped_avframe)
  Stream #0:1 -> #0:1 (aac (native) -> pcm_s16le (native))
Output #0, null, to 'pipe:':
  Metadata:
    COMPATIBLE_BRANDS: isomiso2avc1mp41
    MAJOR_BRAND     : isom
    MINOR_VERSION   : 512
    encoder         : Lavf61.7.100
  Stream #0:0: Video: wrapped_avframe, yuv420p10le(tv, bt709, progressive), 1920x1080 [SAR 1:1 DAR 16:9], q=2-31, 200 kb/s, 23.98 fps, 23.98 tbn
      Metadata:
        encoder         : Lavc61.19.100 wrapped_avframe
  Stream #0:1: Audio: pcm_s16le, 48000 Hz, stereo, s16, 1536 kb/s (default)
      Metadata:
        HANDLER_NAME    : SoundHandler
        VENDOR_ID       : [0][0][0][0]
        _STATISTICS_TAGS: BPS DURATION NUMBER_OF_FRAMES NUMBER_OF_BYTES
        BPS             : 192988
        DURATION        : 00:24:20.821000000
        NUMBER_OF_FRAMES: 68477
        NUMBER_OF_BYTES : 35240258
        _STATISTICS_WRITING_APP: mkvpropedit v66.0.0 ('Josie') 64-bit
        _STATISTICS_WRITING_DATE_UTC: 2025-06-06 07:29:58
        encoder         : Lavc61.19.100 pcm_s16le
frame=  167 fps=0.0 q=-0.0 size=N/A time=00:00:06.96 bitrate=N/A speed=13.6x    frame=  350 fps=342 q=-0.0 size=N/A time=00:00:14.59 bitrate=N/A speed=14.3x    frame=  608 fps=393 q=-0.0 size=N/A time=00:00:25.35 bitrate=N/A speed=16.4x    frame=  835 fps=403 q=-0.0 size=N/A time=00:00:34.82 bitrate=N/A speed=16.8x    frame= 1113 fps=431 q=-0.0 size=N/A time=00:00:46.42 bitrate=N/A speed=  18x    frame= 1314 fps=424 q=-0.0 size=N/A time=00:00:54.80 bitrate=N/A speed=17.7x    frame= 1503 fps=415 q=-0.0 size=N/A time=00:01:02.68 bitrate=N/A speed=17.3x    frame= 1692 fps=410 q=-0.0 size=N/A time=00:01:10.57 bitrate=N/A speed=17.1x    frame= 1908 fps=411 q=-0.0 size=N/A time=00:01:19.57 bitrate=N/A speed=17.1x    frame= 2152 fps=417 q=-0.0 size=N/A time=00:01:29.75 bitrate=N/A speed=17.4x    frame= 2362 fps=416 q=-0.0 size=N/A time=00:01:38.51 bitrate=N/A speed=17.3x    frame= 2589 fps=418 q=-0.0 size=N/A time=00:01:47.98 bitrate=N/A speed=17.4x    frame= 2761 fps=411 q=-0.0 size=N/A time=00:01:55.15 bitrate=N/A speed=17.1x    frame= 2887 fps=400 q=-0.0 size=N/A time=00:02:00.41 bitrate=N/A speed=16.7x    frame= 3065 fps=396 q=-0.0 size=N/A time=00:02:07.83 bitrate=N/A speed=16.5x    frame= 3286 fps=398 q=-0.0 size=N/A time=00:02:17.05 bitrate=N/A speed=16.6x    frame= 3420 fps=390 q=-0.0 size=N/A time=00:02:22.64 bitrate=N/A speed=16.3x    frame= 3652 fps=393 q=-0.0 size=N/A time=00:02:32.31 bitrate=N/A speed=16.4x    frame= 3912 fps=399 q=-0.0 size=N/A time=00:02:43.16 bitrate=N/A speed=16.7x    frame= 4173 fps=404 q=-0.0 size=N/A time=00:02:54.04 bitrate=N/A speed=16.9x    frame= 4443 fps=410 q=-0.0 size=N/A time=00:03:05.31 bitrate=N/A speed=17.1x    frame= 4663 fps=411 q=-0.0 size=N/A time=00:03:14.48 bitrate=N/A speed=17.1x    frame= 4906 fps=414 q=-0.0 size=N/A time=00:03:24.62 bitrate=N/A speed=17.3x    frame= 5147 fps=416 q=-0.0 size=N/A time=00:03:34.67 bitrate=N/A speed=17.3x    frame= 5436 fps=421 q=-0.0 size=N/A time=00:03:46.72 bitrate=N/A speed=17.6x    frame= 5678 fps=423 q=-0.0 size=N/A time=00:03:56.81 bitrate=N/A speed=17.7x    frame= 5878 fps=422 q=-0.0 size=N/A time=00:04:05.16 bitrate=N/A speed=17.6x    frame= 6046 fps=419 q=-0.0 size=N/A time=00:04:12.16 bitrate=N/A speed=17.5x    frame= 6296 fps=421 q=-0.0 size=N/A time=00:04:22.59 bitrate=N/A speed=17.6x    frame= 6532 fps=422 q=-0.0 size=N/A time=00:04:32.43 bitrate=N/A speed=17.6x    frame= 6699 fps=419 q=-0.0 size=N/A time=00:04:39.40 bitrate=N/A speed=17.5x    frame= 6886 fps=417 q=-0.0 size=N/A time=00:04:47.20 bitrate=N/A speed=17.4x    frame= 7089 fps=417 q=-0.0 size=N/A time=00:04:55.67 bitrate=N/A speed=17.4x    frame= 7269 fps=414 q=-0.0 size=N/A time=00:05:03.17 bitrate=N/A speed=17.3x    frame= 7532 fps=417 q=-0.0 size=N/A time=00:05:14.14 bitrate=N/A speed=17.4x    frame= 7742 fps=417 q=-0.0 size=N/A time=00:05:22.90 bitrate=N/A speed=17.4x    frame= 7931 fps=416 q=-0.0 size=N/A time=00:05:30.78 bitrate=N/A speed=17.3x    frame= 8047 fps=411 q=-0.0 size=N/A time=00:05:35.62 bitrate=N/A speed=17.1x    frame= 8265 fps=411 q=-0.0 size=N/A time=00:05:44.71 bitrate=N/A speed=17.1x    frame= 8455 fps=410 q=-0.0 size=N/A time=00:05:52.64 bitrate=N/A speed=17.1x    frame= 8690 fps=411 q=-0.0 size=N/A time=00:06:02.44 bitrate=N/A speed=17.1x    frame= 8922 fps=412 q=-0.0 size=N/A time=00:06:12.12 bitrate=N/A speed=17.2x    frame= 9183 fps=414 q=-0.0 size=N/A time=00:06:23.00 bitrate=N/A speed=17.3x    frame= 9416 fps=415 q=-0.0 size=N/A time=00:06:32.72 bitrate=N/A speed=17.3x    frame= 9646 fps=416 q=-0.0 size=N/A time=00:06:42.31 bitrate=N/A speed=17.3x    frame= 9902 fps=417 q=-0.0 size=N/A time=00:06:52.99 bitrate=N/A speed=17.4x    frame=10153 fps=419 q=-0.0 size=N/A time=00:07:03.46 bitrate=N/A speed=17.5x    frame=10399 fps=420 q=-0.0 size=N/A time=00:07:13.72 bitrate=N/A speed=17.5x    frame=10620 fps=420 q=-0.0 size=N/A time=00:07:22.94 bitrate=N/A speed=17.5x    frame=10846 fps=420 q=-0.0 size=N/A time=00:07:32.36 bitrate=N/A speed=17.5x    frame=11113 fps=422 q=-0.0 size=N/A time=00:07:43.50 bitrate=N/A speed=17.6x    frame=11363 fps=424 q=-0.0 size=N/A time=00:07:53.93 bitrate=N/A speed=17.7x    frame=11558 fps=423 q=-0.0 size=N/A time=00:08:02.06 bitrate=N/A speed=17.6x    frame=11778 fps=423 q=-0.0 size=N/A time=00:08:11.24 bitrate=N/A speed=17.6x    frame=12017 fps=424 q=-0.0 size=N/A time=00:08:21.20 bitrate=N/A speed=17.7x    frame=12254 fps=424 q=-0.0 size=N/A time=00:08:31.09 bitrate=N/A speed=17.7x    frame=12487 fps=425 q=-0.0 size=N/A time=00:08:40.81 bitrate=N/A speed=17.7x    frame=12687 fps=424 q=-0.0 size=N/A time=00:08:49.15 bitrate=N/A speed=17.7x    frame=12945 fps=425 q=-0.0 size=N/A time=00:08:59.91 bitrate=N/A speed=17.7x    frame=13184 fps=426 q=-0.0 size=N/A time=00:09:09.88 bitrate=N/A speed=17.8x    frame=13470 fps=428 q=-0.0 size=N/A time=00:09:21.81 bitrate=N/A speed=17.9x    frame=13768 fps=430 q=-0.0 size=N/A time=00:09:34.24 bitrate=N/A speed=  18x    frame=14026 fps=432 q=-0.0 size=N/A time=00:09:45.00 bitrate=N/A speed=  18x    frame=14260 fps=432 q=-0.0 size=N/A time=00:09:54.76 bitrate=N/A speed=  18x    frame=14490 fps=432 q=-0.0 size=N/A time=00:10:04.35 bitrate=N/A speed=  18x    frame=14724 fps=433 q=-0.0 size=N/A time=00:10:14.11 bitrate=N/A speed=  18x    frame=14992 fps=434 q=-0.0 size=N/A time=00:10:25.29 bitrate=N/A speed=18.1x    frame=15245 fps=435 q=-0.0 size=N/A time=00:10:35.84 bitrate=N/A speed=18.1x    frame=15500 fps=436 q=-0.0 size=N/A time=00:10:46.47 bitrate=N/A speed=18.2x    frame=15762 fps=437 q=-0.0 size=N/A time=00:10:57.40 bitrate=N/A speed=18.2x    frame=15979 fps=436 q=-0.0 size=N/A time=00:11:06.45 bitrate=N/A speed=18.2x    frame=16191 fps=436 q=-0.0 size=N/A time=00:11:15.29 bitrate=N/A speed=18.2x    frame=16460 fps=437 q=-0.0 size=N/A time=00:11:26.51 bitrate=N/A speed=18.2x    frame=16722 fps=438 q=-0.0 size=N/A time=00:11:37.44 bitrate=N/A speed=18.3x    frame=16948 fps=438 q=-0.0 size=N/A time=00:11:46.87 bitrate=N/A speed=18.3x    frame=17186 fps=438 q=-0.0 size=N/A time=00:11:56.79 bitrate=N/A speed=18.3x    frame=17358 fps=437 q=-0.0 size=N/A time=00:12:03.97 bitrate=N/A speed=18.2x    frame=17596 fps=437 q=-0.0 size=N/A time=00:12:13.89 bitrate=N/A speed=18.2x    frame=17849 fps=438 q=-0.0 size=N/A time=00:12:24.45 bitrate=N/A speed=18.3x    frame=18069 fps=438 q=-0.0 size=N/A time=00:12:33.62 bitrate=N/A speed=18.3x    frame=18293 fps=438 q=-0.0 size=N/A time=00:12:42.97 bitrate=N/A speed=18.3x    frame=18474 fps=437 q=-0.0 size=N/A time=00:12:50.51 bitrate=N/A speed=18.2x    frame=18688 fps=436 q=-0.0 size=N/A time=00:12:59.44 bitrate=N/A speed=18.2x    frame=18871 fps=435 q=-0.0 size=N/A time=00:13:07.07 bitrate=N/A speed=18.2x    frame=19053 fps=434 q=-0.0 size=N/A time=00:13:14.66 bitrate=N/A speed=18.1x    frame=19309 fps=435 q=-0.0 size=N/A time=00:13:25.34 bitrate=N/A speed=18.2x    frame=19585 fps=436 q=-0.0 size=N/A time=00:13:36.85 bitrate=N/A speed=18.2x    frame=19836 fps=437 q=-0.0 size=N/A time=00:13:47.32 bitrate=N/A speed=18.2x    frame=20116 fps=438 q=-0.0 size=N/A time=00:13:59.00 bitrate=N/A speed=18.3x    frame=20398 fps=439 q=-0.0 size=N/A time=00:14:10.76 bitrate=N/A speed=18.3x    frame=20648 fps=440 q=-0.0 size=N/A time=00:14:21.19 bitrate=N/A speed=18.3x    frame=20911 fps=441 q=-0.0 size=N/A time=00:14:32.16 bitrate=N/A speed=18.4x    frame=21133 fps=441 q=-0.0 size=N/A time=00:14:41.42 bitrate=N/A speed=18.4x    frame=21371 fps=441 q=-0.0 size=N/A time=00:14:51.34 bitrate=N/A speed=18.4x    frame=21614 fps=441 q=-0.0 size=N/A time=00:15:01.48 bitrate=N/A speed=18.4x    frame=21864 fps=441 q=-0.0 size=N/A time=00:15:11.91 bitrate=N/A speed=18.4x    frame=22134 fps=442 q=-0.0 size=N/A time=00:15:23.17 bitrate=N/A speed=18.4x    frame=22362 fps=442 q=-0.0 size=N/A time=00:15:32.68 bitrate=N/A speed=18.4x    frame=22630 fps=443 q=-0.0 size=N/A time=00:15:43.85 bitrate=N/A speed=18.5x    frame=22856 fps=443 q=-0.0 size=N/A time=00:15:53.28 bitrate=N/A speed=18.5x    frame=23145 fps=444 q=-0.0 size=N/A time=00:16:05.33 bitrate=N/A speed=18.5x    frame=23427 fps=445 q=-0.0 size=N/A time=00:16:17.10 bitrate=N/A speed=18.6x    frame=23692 fps=446 q=-0.0 size=N/A time=00:16:28.15 bitrate=N/A speed=18.6x    frame=23848 fps=445 q=-0.0 size=N/A time=00:16:34.66 bitrate=N/A speed=18.5x    frame=24064 fps=444 q=-0.0 size=N/A time=00:16:43.66 bitrate=N/A speed=18.5x    frame=24292 fps=444 q=-0.0 size=N/A time=00:16:53.17 bitrate=N/A speed=18.5x    frame=24495 fps=444 q=-0.0 size=N/A time=00:17:01.64 bitrate=N/A speed=18.5x    frame=24691 fps=443 q=-0.0 size=N/A time=00:17:09.82 bitrate=N/A speed=18.5x    frame=24902 fps=443 q=-0.0 size=N/A time=00:17:18.62 bitrate=N/A speed=18.5x    frame=25058 fps=442 q=-0.0 size=N/A time=00:17:25.12 bitrate=N/A speed=18.4x    frame=25290 fps=442 q=-0.0 size=N/A time=00:17:34.80 bitrate=N/A speed=18.4x    frame=25490 fps=441 q=-0.0 size=N/A time=00:17:43.14 bitrate=N/A speed=18.4x    frame=25702 fps=441 q=-0.0 size=N/A time=00:17:51.98 bitrate=N/A speed=18.4x    frame=25902 fps=441 q=-0.0 size=N/A time=00:18:00.32 bitrate=N/A speed=18.4x    frame=26177 fps=441 q=-0.0 size=N/A time=00:18:11.79 bitrate=N/A speed=18.4x    frame=26428 fps=442 q=-0.0 size=N/A time=00:18:22.26 bitrate=N/A speed=18.4x    frame=26665 fps=442 q=-0.0 size=N/A time=00:18:32.15 bitrate=N/A speed=18.4x    frame=26901 fps=442 q=-0.0 size=N/A time=00:18:41.99 bitrate=N/A speed=18.4x    frame=27104 fps=442 q=-0.0 size=N/A time=00:18:50.46 bitrate=N/A speed=18.4x    frame=27342 fps=442 q=-0.0 size=N/A time=00:19:00.38 bitrate=N/A speed=18.4x    frame=27531 fps=441 q=-0.0 size=N/A time=00:19:08.27 bitrate=N/A speed=18.4x    frame=27763 fps=441 q=-0.0 size=N/A time=00:19:17.94 bitrate=N/A speed=18.4x    frame=28005 fps=441 q=-0.0 size=N/A time=00:19:28.04 bitrate=N/A speed=18.4x    frame=28169 fps=440 q=-0.0 size=N/A time=00:19:34.88 bitrate=N/A speed=18.4x    frame=28371 fps=440 q=-0.0 size=N/A time=00:19:43.30 bitrate=N/A speed=18.4x    frame=28595 fps=440 q=-0.0 size=N/A time=00:19:52.64 bitrate=N/A speed=18.4x    frame=28771 fps=439 q=-0.0 size=N/A time=00:19:59.99 bitrate=N/A speed=18.3x    frame=29042 fps=440 q=-0.0 size=N/A time=00:20:11.29 bitrate=N/A speed=18.3x    frame=29331 fps=441 q=-0.0 size=N/A time=00:20:23.34 bitrate=N/A speed=18.4x    frame=29598 fps=441 q=-0.0 size=N/A time=00:20:34.48 bitrate=N/A speed=18.4x    frame=29827 fps=441 q=-0.0 size=N/A time=00:20:44.03 bitrate=N/A speed=18.4x    frame=30073 fps=442 q=-0.0 size=N/A time=00:20:54.29 bitrate=N/A speed=18.4x    frame=30304 fps=442 q=-0.0 size=N/A time=00:21:03.92 bitrate=N/A speed=18.4x    frame=30511 fps=441 q=-0.0 size=N/A time=00:21:12.56 bitrate=N/A speed=18.4x    frame=30698 fps=441 q=-0.0 size=N/A time=00:21:20.36 bitrate=N/A speed=18.4x    frame=30913 fps=441 q=-0.0 size=N/A time=00:21:29.32 bitrate=N/A speed=18.4x    frame=31140 fps=441 q=-0.0 size=N/A time=00:21:38.79 bitrate=N/A speed=18.4x    frame=31366 fps=441 q=-0.0 size=N/A time=00:21:48.22 bitrate=N/A speed=18.4x    frame=31555 fps=440 q=-0.0 size=N/A time=00:21:56.10 bitrate=N/A speed=18.4x    frame=31769 fps=440 q=-0.0 size=N/A time=00:22:05.03 bitrate=N/A speed=18.4x    frame=32022 fps=440 q=-0.0 size=N/A time=00:22:15.58 bitrate=N/A speed=18.4x    frame=32232 fps=440 q=-0.0 size=N/A time=00:22:24.34 bitrate=N/A speed=18.4x    frame=32479 fps=440 q=-0.0 size=N/A time=00:22:34.64 bitrate=N/A speed=18.4x    frame=32691 fps=440 q=-0.0 size=N/A time=00:22:43.48 bitrate=N/A speed=18.4x    frame=32936 fps=440 q=-0.0 size=N/A time=00:22:53.70 bitrate=N/A speed=18.4x    frame=33154 fps=440 q=-0.0 size=N/A time=00:23:02.79 bitrate=N/A speed=18.4x    frame=33372 fps=440 q=-0.0 size=N/A time=00:23:11.89 bitrate=N/A speed=18.4x    frame=33575 fps=440 q=-0.0 size=N/A time=00:23:20.35 bitrate=N/A speed=18.3x    frame=33767 fps=439 q=-0.0 size=N/A time=00:23:28.36 bitrate=N/A speed=18.3x    frame=34004 fps=440 q=-0.0 size=N/A time=00:23:38.25 bitrate=N/A speed=18.3x    frame=34248 fps=440 q=-0.0 size=N/A time=00:23:48.42 bitrate=N/A speed=18.3x    frame=34460 fps=440 q=-0.0 size=N/A time=00:23:57.26 bitrate=N/A speed=18.3x    frame=34682 fps=439 q=-0.0 size=N/A time=00:24:06.52 bitrate=N/A speed=18.3x    frame=34905 fps=439 q=-0.0 size=N/A time=00:24:15.82 bitrate=N/A speed=18.3x    [Parsed_psnr_10 @ 000001d511987840] PSNR y:46.923876 u:49.531689 v:50.266007 average:47.705475 min:38.391320 max:inf
[out#0/null @ 000001d50f724200] video:15038KiB audio:273908KiB subtitle:0KiB other streams:0KiB global headers:0KiB muxing overhead: unknown
frame=34998 fps=440 q=-0.0 Lsize=N/A time=00:24:19.70 bitrate=N/A speed=18.3x    
